<svg width="200" height="34" viewBox="0 0 200 34" fill="none" xmlns="http://www.w3.org/2000/svg">
<path opacity="0.2" d="M59.764 10.3828C61.4742 10.3828 62.8606 8.99645 62.8606 7.28628C62.8606 5.5761 61.4742 4.18973 59.764 4.18973C58.0539 4.18973 56.6675 5.5761 56.6675 7.28628C56.6675 8.99645 58.0539 10.3828 59.764 10.3828Z" fill="url(#paint0_radial_2001_112)"/>
<path d="M16.5711 33.2763H11.0515L15.229 17.6813C15.8805 15.2509 18.3793 13.2793 20.8096 13.2793H26.3292L22.1517 28.8742C21.5002 31.3046 19.0015 33.2763 16.5711 33.2763ZM35.697 28.8742L43.4347 -1.14441e-05H37.9151C35.4847 -1.14441e-05 32.986 1.97163 32.3344 4.40201L24.5967 33.2763H30.1164C32.5467 33.2763 35.0454 31.3046 35.697 28.8742ZM49.2447 28.8742L55.8086 4.37273H50.289C47.8587 4.37273 45.3599 6.34437 44.7084 8.77475L38.1444 33.2763H43.664C46.0944 33.2763 48.5931 31.3046 49.2447 28.8742Z" fill="url(#paint1_linear_2001_112)"/>
<path d="M41.8339 19.4528L38.1273 33.2762H43.6469C46.0773 33.2762 48.5784 31.3046 49.2275 28.8742L53.7296 12.0689C50.1108 15.0679 46.0455 17.4909 41.8339 19.4528ZM26.7904 25.0334L24.582 33.2762H30.1016C32.532 33.2762 35.0307 31.3046 35.6822 28.8742L37.5465 21.9149C33.9083 23.2302 30.2651 24.2477 26.7904 25.0334ZM12.6009 27.4272L11.0343 33.2762H16.5564C18.9843 33.2762 21.4855 31.3046 22.1346 28.8742L22.8666 26.151C18.9453 26.8196 15.4168 27.2052 12.6009 27.4296V27.4272Z" fill="url(#paint2_linear_2001_112)"/>
<path style="mix-blend-mode:screen" d="M50.289 4.37273C47.8587 4.37273 45.3599 6.34437 44.7084 8.77231L38.142 33.2738H39.0497L45.3819 9.63368C46.0334 7.20574 48.5321 5.2341 50.9625 5.2341H55.5793L55.8086 4.37273H50.289ZM37.9151 -1.14441e-05C35.4847 -1.14441e-05 32.9835 1.96675 32.3344 4.39957L24.5967 33.2738H25.4996L33.0079 5.26338C33.6594 2.833 36.1582 0.86136 38.5885 0.86136H43.2053L43.4347 0.0024287H37.9151V-1.14441e-05ZM20.8072 13.2768C18.3768 13.2768 15.8781 15.2485 15.2266 17.6788L11.0515 33.2714H11.9543L15.9049 18.5402C16.554 16.1098 19.0552 14.1382 21.4831 14.1382H26.1023L26.3317 13.2768H20.8096H20.8072Z" fill="url(#paint3_linear_2001_112)"/>
<path d="M0.00732044 27.5956C5.3732 27.9201 10.7635 27.6249 16.0879 26.9465C18.7501 26.6024 21.3976 26.1461 24.0184 25.5776C24.6723 25.4287 25.3287 25.2945 25.9802 25.131L27.9299 24.6381C29.2207 24.277 30.514 23.9256 31.7878 23.5035C34.3402 22.6909 36.8535 21.7514 39.2937 20.6534L40.2136 20.2507C40.5162 20.1117 40.8163 19.9604 41.1165 19.8164C41.7167 19.5211 42.3219 19.2405 42.9173 18.9355C44.0934 18.3011 45.2842 17.691 46.4213 16.9883C51.0381 14.2992 55.24 10.9367 58.9393 7.12276L59.808 7.97925L58.3219 9.37014L57.5777 10.0656L56.7993 10.722L55.2425 12.0323L53.6222 13.2622C53.3513 13.4671 53.0878 13.677 52.8121 13.8746L51.9751 14.4505C51.4163 14.8312 50.8673 15.2265 50.2987 15.5949C49.147 16.3075 48.0147 17.0468 46.8215 17.6862C45.6551 18.3694 44.4375 18.9623 43.2345 19.5748C42.6269 19.8701 42.0071 20.1409 41.3946 20.424C41.0872 20.5631 40.7822 20.7071 40.4723 20.8413L39.5352 21.2268C38.9081 21.4781 38.2932 21.7539 37.6588 21.9832L35.7603 22.686C35.1259 22.9154 34.4817 23.1155 33.8448 23.3302C33.5252 23.4351 33.2055 23.5474 32.8834 23.645L31.9147 23.9354C30.6287 24.338 29.3232 24.6698 28.0202 25.0139L26.0534 25.4775C25.397 25.6313 24.7358 25.7557 24.0769 25.8948C21.4367 26.4243 18.7769 26.8391 16.1025 27.1442C13.4306 27.4492 10.744 27.6371 8.05736 27.7225C6.71284 27.7688 5.37076 27.7859 4.02624 27.7664C2.68172 27.7469 1.33964 27.7054 0 27.5956H0.00732044Z" fill="url(#paint4_linear_2001_112)"/>
<path opacity="0.5" d="M59.764 9.81182C61.1588 9.81182 62.2896 8.68109 62.2896 7.28627C62.2896 5.89144 61.1588 4.76072 59.764 4.76072C58.3692 4.76072 57.2385 5.89144 57.2385 7.28627C57.2385 8.68109 58.3692 9.81182 59.764 9.81182Z" fill="url(#paint5_radial_2001_112)"/>
<path d="M61.1014 8.61851C61.838 7.88189 61.838 6.68759 61.1014 5.95097C60.3648 5.21435 59.1705 5.21435 58.4338 5.95097C57.6972 6.68759 57.6972 7.88189 58.4338 8.61851C59.1705 9.35513 60.3648 9.35513 61.1014 8.61851Z" fill="url(#paint6_radial_2001_112)"/>
<path d="M75.074 12.7992H70.8067V10.4602H81.9664V12.7992H77.6991V26.8826H75.074V12.7992ZM87.041 27.1812C85.9711 27.1812 85.0173 26.9489 84.1796 26.4845C83.3501 26.0117 82.6991 25.373 82.2263 24.5685C81.7535 23.7557 81.5171 22.835 81.5171 21.8066C81.5171 20.7781 81.7535 19.8533 82.2263 19.0322C82.6991 18.2111 83.3501 17.5641 84.1796 17.0914C85.0173 16.6103 85.9711 16.3698 87.041 16.3698C88.111 16.3698 89.0565 16.6103 89.8776 17.0914C90.6987 17.5641 91.3415 18.2111 91.806 19.0322C92.2788 19.8533 92.5151 20.7781 92.5151 21.8066C92.5151 22.835 92.2788 23.7557 91.806 24.5685C91.3415 25.373 90.6987 26.0117 89.8776 26.4845C89.0565 26.9489 88.111 27.1812 87.041 27.1812ZM87.041 24.9417C87.6382 24.9417 88.1566 24.8049 88.5962 24.5312C89.0358 24.2575 89.3758 23.8842 89.6163 23.4115C89.8569 22.9387 89.9771 22.3996 89.9771 21.7941C89.9771 21.1887 89.8569 20.6495 89.6163 20.1768C89.3758 19.6957 89.0358 19.3142 88.5962 19.0322C88.1566 18.7502 87.6382 18.6092 87.041 18.6092C86.4438 18.6092 85.9213 18.7502 85.4734 19.0322C85.0338 19.3142 84.6896 19.6957 84.4408 20.1768C84.2003 20.6495 84.08 21.1887 84.08 21.7941C84.08 22.3996 84.2003 22.9387 84.4408 23.4115C84.6896 23.8842 85.0338 24.2575 85.4734 24.5312C85.9213 24.8049 86.4438 24.9417 87.041 24.9417ZM97.4135 32.0581H94.7759V16.6684H97.4508V18.4475C97.542 18.1986 97.7535 17.9125 98.0853 17.589C98.4253 17.2655 98.8732 16.9835 99.4289 16.743C99.9846 16.4942 100.619 16.3698 101.332 16.3698C102.295 16.3698 103.136 16.602 103.858 17.0665C104.588 17.5227 105.156 18.1572 105.562 18.97C105.977 19.7828 106.184 20.72 106.184 21.7817C106.184 22.8433 105.973 23.7806 105.55 24.5934C105.127 25.4062 104.542 26.0407 103.796 26.4969C103.058 26.9531 102.207 27.1812 101.245 27.1812C100.491 27.1812 99.8353 27.0443 99.2796 26.7706C98.7239 26.4886 98.2885 26.1734 97.9733 25.8251C97.6581 25.4767 97.4715 25.1989 97.4135 24.9915V32.0581ZM103.559 21.7817C103.559 21.1265 103.423 20.5542 103.149 20.0648C102.875 19.5755 102.51 19.1981 102.054 18.9327C101.606 18.659 101.113 18.5221 100.574 18.5221C99.9929 18.5221 99.4662 18.6631 98.9935 18.9451C98.5207 19.2188 98.1433 19.6003 97.8613 20.0897C97.5876 20.5707 97.4508 21.1347 97.4508 21.7817C97.4508 22.4286 97.5876 22.9968 97.8613 23.4861C98.1433 23.9672 98.5207 24.3446 98.9935 24.6183C99.4662 24.892 99.9929 25.0288 100.574 25.0288C101.113 25.0288 101.606 24.8961 102.054 24.6307C102.51 24.3653 102.875 23.9879 103.149 23.4986C103.423 23.0092 103.559 22.4369 103.559 21.7817ZM121.6 10.4602H124.275L130.471 26.8826H127.684L126.328 23.1253H119.56L118.191 26.8826H115.392L121.6 10.4602ZM120.406 20.7988H125.482L122.956 13.6452H122.919L120.406 20.7988ZM131.154 16.6684H133.12V13.8318C133.12 12.8116 133.311 11.9822 133.692 11.3435C134.074 10.6966 134.559 10.2238 135.148 9.92526C135.745 9.61837 136.359 9.46493 136.989 9.46493C137.761 9.46493 138.35 9.57276 138.756 9.7884C139.171 9.99576 139.424 10.1409 139.515 10.2238L138.47 12.2144C138.42 12.1647 138.296 12.0776 138.097 11.9532C137.898 11.8205 137.628 11.7541 137.288 11.7541C137.039 11.7541 136.799 11.8122 136.566 11.9283C136.342 12.0444 136.152 12.2725 135.994 12.6125C135.837 12.9526 135.758 13.4503 135.758 14.1055V16.6684H138.557V18.9078H135.758V26.8826H133.12V18.9078H131.154V16.6684ZM139.366 16.6684H141.331V13.8318C141.331 12.8116 141.522 11.9822 141.904 11.3435C142.285 10.6966 142.77 10.2238 143.359 9.92526C143.956 9.61837 144.57 9.46493 145.201 9.46493C145.972 9.46493 146.561 9.57276 146.967 9.7884C147.382 9.99576 147.635 10.1409 147.726 10.2238L146.681 12.2144C146.631 12.1647 146.507 12.0776 146.308 11.9532C146.109 11.8205 145.839 11.7541 145.499 11.7541C145.25 11.7541 145.01 11.8122 144.778 11.9283C144.554 12.0444 144.363 12.2725 144.205 12.6125C144.048 12.9526 143.969 13.4503 143.969 14.1055V16.6684H146.768V18.9078H143.969V26.8826H141.331V18.9078H139.366V16.6684ZM148.809 26.8826V16.6684H151.458V26.8826H148.809ZM150.165 13.6078C149.717 13.6078 149.331 13.4461 149.008 13.1226C148.692 12.7992 148.535 12.4135 148.535 11.9656C148.535 11.5177 148.692 11.132 149.008 10.8086C149.331 10.4768 149.717 10.3109 150.165 10.3109C150.463 10.3109 150.737 10.3897 150.986 10.5473C151.243 10.6966 151.446 10.8957 151.595 11.1445C151.753 11.385 151.832 11.6587 151.832 11.9656C151.832 12.4135 151.67 12.7992 151.346 13.1226C151.023 13.4461 150.629 13.6078 150.165 13.6078ZM157.276 26.8826H154.601V9.76352H157.276V26.8826ZM160.376 26.8826V16.6684H163.026V26.8826H160.376ZM161.732 13.6078C161.284 13.6078 160.898 13.4461 160.575 13.1226C160.26 12.7992 160.102 12.4135 160.102 11.9656C160.102 11.5177 160.26 11.132 160.575 10.8086C160.898 10.4768 161.284 10.3109 161.732 10.3109C162.031 10.3109 162.304 10.3897 162.553 10.5473C162.81 10.6966 163.013 10.8957 163.163 11.1445C163.32 11.385 163.399 11.6587 163.399 11.9656C163.399 12.4135 163.237 12.7992 162.914 13.1226C162.59 13.4461 162.196 13.6078 161.732 13.6078ZM174.242 26.8826V24.9915C174.175 25.1906 173.985 25.4643 173.669 25.8126C173.363 26.161 172.94 26.4762 172.4 26.7582C171.87 27.0402 171.239 27.1812 170.509 27.1812C169.556 27.1812 168.697 26.9531 167.934 26.4969C167.171 26.0407 166.57 25.4062 166.13 24.5934C165.691 23.7806 165.471 22.8433 165.471 21.7817C165.471 20.72 165.691 19.7828 166.13 18.97C166.57 18.1572 167.171 17.5227 167.934 17.0665C168.697 16.602 169.556 16.3698 170.509 16.3698C171.223 16.3698 171.841 16.4942 172.363 16.743C172.886 16.9918 173.305 17.278 173.62 17.6015C173.943 17.9249 174.142 18.2069 174.217 18.4475V16.6684H176.854V26.8826H174.242ZM168.096 21.7817C168.096 22.4369 168.241 23.0092 168.531 23.4986C168.822 23.9879 169.199 24.3653 169.663 24.6307C170.136 24.8961 170.642 25.0288 171.181 25.0288C171.762 25.0288 172.276 24.892 172.724 24.6183C173.18 24.3446 173.537 23.9672 173.794 23.4861C174.059 22.9968 174.192 22.4286 174.192 21.7817C174.192 21.1347 174.059 20.5707 173.794 20.0897C173.537 19.6003 173.18 19.2188 172.724 18.9451C172.276 18.6631 171.762 18.5221 171.181 18.5221C170.642 18.5221 170.136 18.659 169.663 18.9327C169.199 19.1981 168.822 19.5755 168.531 20.0648C168.241 20.5542 168.096 21.1265 168.096 21.7817ZM178.721 16.6684H180.637V12.4757H183.274V16.6684H185.8V18.9078H183.274V23.2746C183.274 23.822 183.366 24.2326 183.548 24.5063C183.739 24.78 184.008 24.9169 184.357 24.9169C184.647 24.9169 184.875 24.863 185.041 24.7551C185.215 24.6473 185.319 24.5727 185.352 24.5312L186.335 26.4596C186.285 26.5093 186.14 26.5923 185.9 26.7084C185.659 26.8245 185.348 26.9323 184.966 27.0319C184.585 27.1314 184.149 27.1812 183.66 27.1812C182.798 27.1812 182.076 26.924 181.495 26.4098C180.923 25.8956 180.637 25.091 180.637 23.9962V18.9078H178.721V16.6684ZM189.901 22.4037C189.918 22.9429 190.046 23.4281 190.287 23.8594C190.527 24.2907 190.88 24.6307 191.344 24.8795C191.817 25.1201 192.393 25.2403 193.074 25.2403C193.662 25.2403 194.168 25.1615 194.591 25.004C195.023 24.8381 195.379 24.6432 195.661 24.4192C195.943 24.187 196.151 23.9713 196.283 23.7723L197.465 25.3772C197.208 25.7255 196.885 26.0366 196.495 26.3103C196.105 26.584 195.62 26.7955 195.039 26.9448C194.467 27.1024 193.758 27.1812 192.912 27.1812C191.8 27.1812 190.834 26.9531 190.013 26.4969C189.192 26.0407 188.553 25.3979 188.097 24.5685C187.649 23.7391 187.425 22.7687 187.425 21.6573C187.425 20.662 187.633 19.7662 188.047 18.97C188.462 18.1655 189.063 17.531 189.851 17.0665C190.648 16.602 191.601 16.3698 192.713 16.3698C193.75 16.3698 194.649 16.5771 195.413 16.9918C196.176 17.4065 196.764 18.0037 197.179 18.7834C197.602 19.5547 197.814 20.4878 197.814 21.5826C197.814 21.649 197.81 21.7858 197.801 21.9932C197.801 22.2005 197.793 22.3374 197.776 22.4037H189.901ZM195.325 20.4629C195.317 20.1975 195.226 19.8948 195.052 19.5547C194.886 19.2147 194.616 18.9202 194.243 18.6714C193.87 18.4143 193.372 18.2857 192.75 18.2857C192.111 18.2857 191.593 18.4101 191.195 18.659C190.797 18.8995 190.502 19.1898 190.312 19.5298C190.121 19.8616 190.009 20.1726 189.976 20.4629H195.325Z" fill="black"/>
<path d="M110.026 15.1754L107.414 16.544V13.0107L111.992 10.4602H113.746V26.8826H110.026V15.1754Z" fill="url(#paint7_linear_2001_112)"/>
<defs>
<radialGradient id="paint0_radial_2001_112" cx="0" cy="0" r="1" gradientUnits="userSpaceOnUse" gradientTransform="translate(58.9808 5.14871) scale(7.06666 7.06666)">
<stop offset="0.11" stop-color="#FFAB40"/>
<stop offset="1" stop-color="#DD2C00"/>
</radialGradient>
<linearGradient id="paint1_linear_2001_112" x1="27.8177" y1="9.02853" x2="37.3099" y2="29.8869" gradientUnits="userSpaceOnUse">
<stop stop-color="#01414F"/>
<stop offset="1" stop-color="#01A381"/>
</linearGradient>
<linearGradient id="paint2_linear_2001_112" x1="38.8227" y1="45.7185" x2="31.9025" y2="20.9559" gradientUnits="userSpaceOnUse">
<stop stop-color="#64FFA5"/>
<stop offset="1" stop-color="#006347"/>
</linearGradient>
<linearGradient id="paint3_linear_2001_112" x1="33.4276" y1="35.5554" x2="33.4276" y2="3.41375" gradientUnits="userSpaceOnUse">
<stop stop-color="#7964FF" stop-opacity="0"/>
<stop offset="0.15" stop-color="#7A65F7" stop-opacity="0.11"/>
<stop offset="0.45" stop-color="#7D67E2" stop-opacity="0.4"/>
<stop offset="0.87" stop-color="#836CC2" stop-opacity="0.85"/>
<stop offset="1" stop-color="#856EB8"/>
</linearGradient>
<linearGradient id="paint4_linear_2001_112" x1="0.00732044" y1="17.447" x2="59.808" y2="17.447" gradientUnits="userSpaceOnUse">
<stop stop-color="#FFCBA2" stop-opacity="0"/>
<stop offset="0.09" stop-color="#FFC79A" stop-opacity="0.04"/>
<stop offset="0.24" stop-color="#FFBC87" stop-opacity="0.16"/>
<stop offset="0.44" stop-color="#FFAB69" stop-opacity="0.35"/>
<stop offset="0.68" stop-color="#FF943E" stop-opacity="0.61"/>
<stop offset="0.96" stop-color="#FF7608" stop-opacity="0.95"/>
<stop offset="1" stop-color="#FF7200"/>
</linearGradient>
<radialGradient id="paint5_radial_2001_112" cx="0" cy="0" r="1" gradientUnits="userSpaceOnUse" gradientTransform="translate(59.1247 5.54156) scale(5.76363 5.76362)">
<stop offset="0.11" stop-color="#FFAB40"/>
<stop offset="1" stop-color="#DD2C00"/>
</radialGradient>
<radialGradient id="paint6_radial_2001_112" cx="0" cy="0" r="1" gradientUnits="userSpaceOnUse" gradientTransform="translate(59.2871 5.98315) scale(4.30686)">
<stop offset="0.11" stop-color="#FFAB40"/>
<stop offset="1" stop-color="#DD2C00"/>
</radialGradient>
<linearGradient id="paint7_linear_2001_112" x1="103.629" y1="12.207" x2="115.241" y2="29.2374" gradientUnits="userSpaceOnUse">
<stop stop-color="#01A382"/>
<stop offset="1" stop-color="#01404F"/>
</linearGradient>
</defs>
</svg>
