<svg width="314" height="314" viewBox="0 0 314 314" fill="none" xmlns="http://www.w3.org/2000/svg">
<path d="M309 157C309 176.961 305.068 196.726 297.43 215.168C289.791 233.609 278.595 250.366 264.48 264.48C250.366 278.595 233.609 289.791 215.168 297.43C196.726 305.068 176.961 309 157 309C137.039 309 117.274 305.068 98.8321 297.43C80.3906 289.791 63.6343 278.595 49.5198 264.48C35.4053 250.366 24.209 233.609 16.5703 215.168C8.93159 196.726 5 176.961 5 157C5 137.039 8.9316 117.274 16.5703 98.8321C24.209 80.3906 35.4053 63.6343 49.5198 49.5198C63.6343 35.4053 80.3906 24.209 98.8321 16.5703C117.274 8.93159 137.039 5 157 5C176.961 5 196.726 8.9316 215.168 16.5703C233.609 24.209 250.366 35.4053 264.48 49.5198C278.595 63.6343 289.791 80.3907 297.43 98.8321C305.068 117.274 309 137.039 309 157L309 157Z" stroke="#00A299" stroke-opacity="0.23" stroke-width="9.97" stroke-linecap="round"/>
<path d="M309 157C309 195.661 294.268 232.869 267.803 261.051" stroke="#018572" stroke-width="9.97" stroke-linecap="round"/>
</svg>
