<svg width="29" height="22" viewBox="0 0 29 22" fill="none" xmlns="http://www.w3.org/2000/svg">
<path d="M28.6968 7.29285L21.4466 0.292781C21.0421 -0.0976912 20.3863 -0.0975739 19.9819 0.293015C19.7878 0.480516 19.6787 0.734698 19.6786 0.999837V3.99986H12.4285C11.8565 3.99986 11.3928 4.44758 11.3928 4.99989C11.3928 5.5522 11.8565 5.99991 12.4285 5.99991H20.7144C21.2864 5.99991 21.7501 5.5522 21.7501 4.99989V3.4138L26.5 7.99985L21.7501 12.5859V10.9999C21.7501 10.4476 21.2864 9.99985 20.7144 9.99985H9.32133V6.99982C9.32121 6.44752 8.85738 5.99991 8.2854 6.00003C8.01085 6.00009 7.74753 6.10538 7.55333 6.29283L0.303269 13.2929C-0.10109 13.6834 -0.10109 14.3164 0.303269 14.7069L7.55339 21.707C7.74759 21.8945 8.01098 21.9999 8.28565 22C8.42177 22.0004 8.55667 21.9746 8.6823 21.924C9.06924 21.7691 9.32146 21.4044 9.32133 21V17.9999H16.5715C17.1435 17.9999 17.6072 17.5522 17.6072 16.9999C17.6072 16.4476 17.1435 15.9999 16.5715 15.9999H8.28565C7.71361 15.9999 7.2499 16.4476 7.2499 16.9999V18.5859L2.50003 13.9999L7.2499 9.41385V10.9999C7.2499 11.5522 7.71361 11.9999 8.28565 11.9999H19.6786V14.9999C19.6788 15.5522 20.1426 15.9998 20.7146 15.9997C20.9891 15.9997 21.2524 15.8944 21.4466 15.7069L28.6968 8.70685C29.1011 8.31632 29.1011 7.68333 28.6968 7.29285Z" fill="white"/>
</svg>
