<svg width="18" height="15" viewBox="0 0 18 15" fill="none" xmlns="http://www.w3.org/2000/svg">
<path d="M13.8248 0.857178H5.0334C3.92591 0.857178 2.86378 1.29532 2.08068 2.07528C1.29757 2.85523 0.857666 3.91314 0.857666 5.01614V10.2696C0.857666 11.3727 1.29757 12.4306 2.08068 13.2105C2.86378 13.9905 3.92595 14.4286 5.0334 14.4286H13.8248C14.9323 14.4286 15.9944 13.9905 16.7775 13.2105C17.5606 12.4306 18.0005 11.3726 18.0005 10.2696V5.01614C18.0005 3.9131 17.5606 2.85523 16.7775 2.07528C15.9944 1.29532 14.9322 0.857178 13.8248 0.857178ZM2.17641 6.54821H5.03348C5.42614 6.54821 5.78893 6.7568 5.98526 7.09555C6.18144 7.43416 6.18144 7.85134 5.98526 8.18993C5.78893 8.52868 5.42614 8.73727 5.03348 8.73727H2.17641V6.54821ZM16.6818 10.2695C16.6794 11.0235 16.3777 11.746 15.8425 12.2791C15.307 12.8123 14.5818 13.1129 13.8247 13.1151H5.03333C4.27626 13.1129 3.55099 12.8122 3.01557 12.2791C2.48031 11.746 2.1786 11.0235 2.17626 10.2695V10.0506H5.03333C5.89709 10.0506 6.69519 9.59171 7.127 8.84662C7.55896 8.10167 7.55896 7.18381 7.127 6.43887C6.69519 5.69381 5.89706 5.23484 5.03333 5.23484H2.17626V5.01599C2.17862 4.26197 2.48032 3.53946 3.01557 3.00634C3.55099 2.47323 4.27626 2.17258 5.03333 2.1704H13.8247C14.5818 2.1726 15.307 2.47324 15.8425 3.00634C16.3777 3.53946 16.6794 4.26197 16.6818 5.01599V10.2695Z" fill="white"/>
</svg>
