<svg width="46" height="46" viewBox="0 0 46 46" fill="none" xmlns="http://www.w3.org/2000/svg">
<g filter="url(#filter0_d_2004_118)">
<rect x="7.62537" y="3" width="31.302" height="31.302" rx="7.51248" fill="url(#paint0_linear_2004_118)"/>
</g>
<path d="M18.3709 14.0031H28.1528C28.2671 14.0031 28.3812 14.0103 28.4946 14.0248C28.4561 13.7552 28.3635 13.496 28.2222 13.2631C28.081 13.0302 27.894 12.8283 27.6726 12.6696C27.4512 12.5109 27.2 12.3987 26.934 12.3397C26.6681 12.2807 26.3929 12.2762 26.1252 12.3265L18.0805 13.6999H18.0714C17.5664 13.7965 17.1173 14.0822 16.8159 14.4987C17.27 14.1756 17.8137 14.0024 18.3709 14.0031V14.0031Z" fill="white"/>
<path d="M28.153 14.7382H18.3712C17.8525 14.7387 17.3552 14.945 16.9884 15.3118C16.6217 15.6786 16.4154 16.1758 16.4148 16.6945V22.5637C16.4154 23.0823 16.6217 23.5796 16.9884 23.9464C17.3552 24.3132 17.8525 24.5195 18.3712 24.52H28.153C28.6717 24.5195 29.169 24.3132 29.5358 23.9464C29.9025 23.5796 30.1088 23.0823 30.1094 22.5637V16.6945C30.1088 16.1758 29.9025 15.6786 29.5358 15.3118C29.169 14.945 28.6717 14.7387 28.153 14.7382V14.7382ZM26.701 20.6073C26.5076 20.6073 26.3185 20.5499 26.1576 20.4424C25.9967 20.3349 25.8714 20.1822 25.7973 20.0034C25.7233 19.8247 25.7039 19.628 25.7417 19.4383C25.7794 19.2485 25.8726 19.0742 26.0094 18.9374C26.1462 18.8006 26.3205 18.7074 26.5102 18.6697C26.7 18.632 26.8966 18.6513 27.0754 18.7254C27.2541 18.7994 27.4069 18.9248 27.5144 19.0856C27.6219 19.2465 27.6792 19.4356 27.6792 19.6291C27.6792 19.8885 27.5762 20.1373 27.3927 20.3208C27.2093 20.5042 26.9605 20.6073 26.701 20.6073Z" fill="white"/>
<path d="M16.4299 18.7563V15.7147C16.4299 15.0523 16.7968 13.9418 18.0699 13.7012C19.1505 13.4985 20.2204 13.4985 20.2204 13.4985C20.2204 13.4985 20.9235 13.9876 20.3427 13.9876C19.7619 13.9876 19.7772 14.7366 20.3427 14.7366C20.9082 14.7366 20.3427 15.4549 20.3427 15.4549L18.0653 18.0379L16.4299 18.7563Z" fill="white"/>
<defs>
<filter id="filter0_d_2004_118" x="0.738927" y="0.49584" width="45.0749" height="45.0749" filterUnits="userSpaceOnUse" color-interpolation-filters="sRGB">
<feFlood flood-opacity="0" result="BackgroundImageFix"/>
<feColorMatrix in="SourceAlpha" type="matrix" values="0 0 0 0 0 0 0 0 0 0 0 0 0 0 0 0 0 0 127 0" result="hardAlpha"/>
<feOffset dy="4.38228"/>
<feGaussianBlur stdDeviation="3.44322"/>
<feColorMatrix type="matrix" values="0 0 0 0 0 0 0 0 0 0 0 0 0 0 0 0 0 0 0.02 0"/>
<feBlend mode="normal" in2="BackgroundImageFix" result="effect1_dropShadow_2004_118"/>
<feBlend mode="normal" in="SourceGraphic" in2="effect1_dropShadow_2004_118" result="shape"/>
</filter>
<linearGradient id="paint0_linear_2004_118" x1="23.2764" y1="3" x2="23.2764" y2="34.302" gradientUnits="userSpaceOnUse">
<stop stop-color="#01A281"/>
<stop offset="1" stop-color="#01404F"/>
</linearGradient>
</defs>
</svg>
