<svg width="15" height="16" viewBox="0 0 15 16" fill="none" xmlns="http://www.w3.org/2000/svg">
<g clip-path="url(#clip0_1_181)">
<path d="M7.66275 3.46757C7.61913 3.42584 7.5611 3.40256 7.50074 3.40256C7.44038 3.40256 7.38235 3.42584 7.33873 3.46757L1.94518 8.62001C1.92227 8.64192 1.90405 8.66825 1.89161 8.69741C1.87917 8.72656 1.87278 8.75794 1.87281 8.78964L1.87193 13.6254C1.87193 13.874 1.9707 14.1125 2.14652 14.2883C2.32234 14.4641 2.56079 14.5629 2.80943 14.5629H5.62486C5.74918 14.5629 5.86841 14.5135 5.95632 14.4256C6.04422 14.3377 6.09361 14.2184 6.09361 14.0941V10.1098C6.09361 10.0476 6.1183 9.98798 6.16226 9.94403C6.20621 9.90007 6.26583 9.87538 6.32799 9.87538H8.67174C8.7339 9.87538 8.79351 9.90007 8.83746 9.94403C8.88142 9.98798 8.90611 10.0476 8.90611 10.1098V14.0941C8.90611 14.2184 8.9555 14.3377 9.0434 14.4256C9.13131 14.5135 9.25054 14.5629 9.37486 14.5629H12.1891C12.4378 14.5629 12.6762 14.4641 12.852 14.2883C13.0278 14.1125 13.1266 13.874 13.1266 13.6254V8.78964C13.1267 8.75794 13.1203 8.72656 13.1078 8.69741C13.0954 8.66825 13.0772 8.64192 13.0543 8.62001L7.66275 3.46757Z" fill="white"/>
<path d="M14.3823 7.65378L12.1909 5.55729V2.37595C12.1909 2.25163 12.1415 2.1324 12.0536 2.04449C11.9657 1.95658 11.8465 1.9072 11.7222 1.9072H10.3159C10.1916 1.9072 10.0724 1.95658 9.98448 2.04449C9.89657 2.1324 9.84718 2.25163 9.84718 2.37595V3.31345L8.15031 1.69099C7.99152 1.53044 7.75539 1.43845 7.50021 1.43845C7.24591 1.43845 7.01037 1.53044 6.85158 1.69128L0.620135 7.65319C0.437909 7.82897 0.415057 8.11813 0.580877 8.30856C0.622517 8.35663 0.673503 8.39572 0.73073 8.42346C0.787958 8.45119 0.850231 8.467 0.91376 8.4699C0.977289 8.47281 1.04074 8.46275 1.10026 8.44036C1.15979 8.41796 1.21413 8.38368 1.25998 8.33962L7.33908 2.53063C7.3827 2.48891 7.44073 2.46562 7.50109 2.46562C7.56145 2.46562 7.61948 2.48891 7.6631 2.53063L13.7428 8.33962C13.8323 8.4255 13.9523 8.47237 14.0764 8.46995C14.2004 8.46754 14.3185 8.41603 14.4046 8.32673C14.5845 8.1404 14.5695 7.83278 14.3823 7.65378Z" fill="white"/>
</g>
<defs>
<clipPath id="clip0_1_181">
<rect width="15" height="15" fill="white" transform="translate(-0.000144958 0.500076)"/>
</clipPath>
</defs>
</svg>
