<svg width="46" height="46" viewBox="0 0 46 46" fill="none" xmlns="http://www.w3.org/2000/svg">
<g filter="url(#filter0_d_2004_121)">
<rect x="7.62537" y="3" width="31.302" height="31.302" rx="7.51248" fill="url(#paint0_linear_2004_121)"/>
</g>
<path d="M29.9767 13.2606L17.2606 25.9773L16.0233 24.74L28.7394 12.0233L29.9767 13.2606ZM16 14.625C16 13.1778 17.1778 12 18.625 12C20.0722 12 21.25 13.1778 21.25 14.625C21.25 16.0722 20.0722 17.25 18.625 17.25C17.1778 17.25 16 16.0722 16 14.625ZM17.75 14.625C17.75 15.1074 18.1426 15.5 18.625 15.5C19.1074 15.5 19.5 15.1074 19.5 14.625C19.5 14.1426 19.1074 13.75 18.625 13.75C18.1426 13.75 17.75 14.1426 17.75 14.625ZM30 23.375C30 24.8222 28.8222 26 27.375 26C25.9278 26 24.75 24.8222 24.75 23.375C24.75 21.9278 25.9278 20.75 27.375 20.75C28.8222 20.75 30 21.9278 30 23.375ZM28.25 23.375C28.25 22.8926 27.8574 22.5 27.375 22.5C26.8926 22.5 26.5 22.8926 26.5 23.375C26.5 23.8574 26.8926 24.25 27.375 24.25C27.8574 24.25 28.25 23.8574 28.25 23.375Z" fill="white"/>
<defs>
<filter id="filter0_d_2004_121" x="0.738927" y="0.49584" width="45.0749" height="45.0749" filterUnits="userSpaceOnUse" color-interpolation-filters="sRGB">
<feFlood flood-opacity="0" result="BackgroundImageFix"/>
<feColorMatrix in="SourceAlpha" type="matrix" values="0 0 0 0 0 0 0 0 0 0 0 0 0 0 0 0 0 0 127 0" result="hardAlpha"/>
<feOffset dy="4.38228"/>
<feGaussianBlur stdDeviation="3.44322"/>
<feColorMatrix type="matrix" values="0 0 0 0 0 0 0 0 0 0 0 0 0 0 0 0 0 0 0.02 0"/>
<feBlend mode="normal" in2="BackgroundImageFix" result="effect1_dropShadow_2004_121"/>
<feBlend mode="normal" in="SourceGraphic" in2="effect1_dropShadow_2004_121" result="shape"/>
</filter>
<linearGradient id="paint0_linear_2004_121" x1="23.2764" y1="3" x2="23.2764" y2="34.302" gradientUnits="userSpaceOnUse">
<stop stop-color="#01A281"/>
<stop offset="1" stop-color="#01404F"/>
</linearGradient>
</defs>
</svg>
