<svg width="36" height="36" viewBox="0 0 36 36" fill="none" xmlns="http://www.w3.org/2000/svg">
<circle cx="17.7856" cy="17.6269" r="17.1261" stroke="#A0AEC0" stroke-width="1.00742"/>
<g clip-path="url(#clip0_1_338)">
<path d="M17.7856 22.9158C18.4347 22.9158 18.9609 22.3896 18.9609 21.7405C18.9609 21.0914 18.4347 20.5652 17.7856 20.5652C17.1364 20.5652 16.6102 21.0914 16.6102 21.7405C16.6102 22.3896 17.1364 22.9158 17.7856 22.9158Z" fill="#A0AEC0"/>
<path d="M17.7856 12.338C17.1391 12.338 16.6102 12.8668 16.6102 13.5133V18.2146C16.6102 18.861 17.1391 19.3899 17.7856 19.3899C18.432 19.3899 18.9609 18.861 18.9609 18.2146V13.5133C18.9609 12.8668 18.432 12.338 17.7856 12.338Z" fill="#A0AEC0"/>
</g>
<defs>
<clipPath id="clip0_1_338">
<rect width="14.1039" height="14.1039" fill="white" transform="translate(10.7336 10.575)"/>
</clipPath>
</defs>
</svg>
