<svg width="57" height="57" viewBox="0 0 57 57" fill="none" xmlns="http://www.w3.org/2000/svg">
<g filter="url(#filter0_d_2001_112)">
<rect x="5.89465" y="2.49997" width="45.4781" height="45" rx="12" fill="url(#paint0_linear_2001_112)"/>
</g>
<path fill-rule="evenodd" clip-rule="evenodd" d="M32.7 18.25C32.7 21.1495 30.3495 23.5 27.45 23.5C24.5505 23.5 22.2 21.1495 22.2 18.25C22.2 15.3505 24.5505 13 27.45 13C30.3495 13 32.7 15.3505 32.7 18.25ZM25.35 25.6C21.2907 25.6 18 28.8907 18 32.95C18 34.6897 19.4103 36.1 21.15 36.1H28.9298C29.3836 36.1 29.6413 35.5457 29.4064 35.1574C28.8311 34.207 28.5 33.0922 28.5 31.9C28.5 29.7642 29.5628 27.8766 31.1884 26.7373C31.57 26.4699 31.5374 25.8564 31.0816 25.7598C30.5876 25.6551 30.0752 25.6 29.55 25.6H25.35ZM34.8 27.7C35.3799 27.7 35.85 28.1701 35.85 28.75V30.85H37.95C38.5299 30.85 39 31.3201 39 31.9C39 32.4799 38.5299 32.95 37.95 32.95H35.85V35.05C35.85 35.6298 35.3799 36.1 34.8 36.1C34.2201 36.1 33.75 35.6298 33.75 35.05V32.95H31.65C31.0701 32.95 30.6 32.4799 30.6 31.9C30.6 31.3201 31.0701 30.85 31.65 30.85H33.75V28.75C33.75 28.1701 34.2201 27.7 34.8 27.7Z" fill="white"/>
<defs>
<filter id="filter0_d_2001_112" x="0.394653" y="0.499969" width="56.4782" height="56" filterUnits="userSpaceOnUse" color-interpolation-filters="sRGB">
<feFlood flood-opacity="0" result="BackgroundImageFix"/>
<feColorMatrix in="SourceAlpha" type="matrix" values="0 0 0 0 0 0 0 0 0 0 0 0 0 0 0 0 0 0 127 0" result="hardAlpha"/>
<feOffset dy="3.5"/>
<feGaussianBlur stdDeviation="2.75"/>
<feColorMatrix type="matrix" values="0 0 0 0 0 0 0 0 0 0 0 0 0 0 0 0 0 0 0.02 0"/>
<feBlend mode="normal" in2="BackgroundImageFix" result="effect1_dropShadow_2001_112"/>
<feBlend mode="normal" in="SourceGraphic" in2="effect1_dropShadow_2001_112" result="shape"/>
</filter>
<linearGradient id="paint0_linear_2001_112" x1="28.6337" y1="2.49997" x2="28.6337" y2="47.5" gradientUnits="userSpaceOnUse">
<stop stop-color="#01A281"/>
<stop offset="1" stop-color="#00414F"/>
</linearGradient>
</defs>
</svg>
